<svg id="svg" version="1.1" xmlns="http://www.w3.org/2000/svg" xmlns:xlink="http://www.w3.org/1999/xlink" width="400" height="400" viewBox="0, 0, 400,400"><g id="svgg"><path id="path0" d="M176.258 26.213 C 34.410 45.529,-25.456 219.105,74.187 322.162 C 181.461 433.113,371.090 359.192,374.792 204.981 C 377.409 95.933,283.729 11.579,176.258 26.213 M210.156 38.318 C 348.870 48.150,412.355 214.768,315.030 313.562 C 230.297 399.574,83.889 365.380,46.223 250.781 C 12.691 148.763,85.622 43.307,193.359 38.025 C 195.938 37.899,198.223 37.732,198.438 37.655 C 198.652 37.578,203.926 37.877,210.156 38.318 M180.469 50.807 C 104.119 61.297,50.323 123.170,50.414 200.391 C 50.513 285.411,115.103 349.666,200.391 349.589 C 285.241 349.513,349.574 285.006,349.574 200.000 C 349.574 127.163,301.499 67.860,230.104 52.624 C 219.728 50.410,191.009 49.358,180.469 50.807 M203.465 77.539 C 206.366 80.102,275.000 202.067,275.000 204.659 C 275.000 205.844,274.234 207.452,273.242 208.350 C 271.525 209.905,202.318 236.733,200.000 236.743 C 197.746 236.752,128.499 209.892,126.758 208.333 C 123.490 205.407,123.925 204.520,159.772 140.955 C 193.403 81.320,196.822 75.781,200.000 75.781 C 200.811 75.781,202.371 76.572,203.465 77.539 M169.335 147.437 C 145.877 189.025,139.309 201.247,140.163 201.725 C 140.769 202.065,154.493 207.413,170.662 213.610 L 200.058 224.877 230.303 213.275 C 246.937 206.894,260.547 201.382,260.547 201.025 C 260.547 200.147,200.493 93.759,200.000 93.763 C 199.785 93.765,185.986 117.918,169.335 147.437 M160.453 234.711 L 200.040 249.890 239.587 234.711 C 284.726 217.385,286.719 216.972,286.719 224.958 C 286.719 227.630,205.336 322.435,201.886 323.784 C 198.308 325.181,196.138 322.942,154.755 275.154 C 110.410 223.946,111.082 224.855,114.844 221.094 C 117.505 218.433,119.752 219.104,160.453 234.711 M139.844 239.715 C 139.844 240.670,199.171 308.984,200.000 308.984 C 200.866 308.984,260.156 240.647,260.156 239.650 C 260.156 239.276,259.893 239.130,259.570 239.325 C 257.712 240.450,201.175 261.719,200.043 261.719 C 199.012 261.719,164.422 248.740,141.602 239.791 C 140.635 239.411,139.844 239.377,139.844 239.715 " stroke="none" fill="#000000" fill-rule="evenodd"></path></g></svg>