<svg id="visual" viewBox="0 0 900 600" width="900" height="600" xmlns="http://www.w3.org/2000/svg" xmlns:xlink="http://www.w3.org/1999/xlink" version="1.1"><rect x="0" y="0" width="900" height="600" fill="#2f3136"></rect><path d="M0 247L43 247L43 262L86 262L86 289L129 289L129 338L171 338L171 229L214 229L214 216L257 216L257 254L300 254L300 322L343 322L343 312L386 312L386 336L429 336L429 315L471 315L471 336L514 336L514 304L557 304L557 253L600 253L600 266L643 266L643 316L686 316L686 272L729 272L729 215L771 215L771 346L814 346L814 347L857 347L857 215L900 215L900 302L900 0L900 0L857 0L857 0L814 0L814 0L771 0L771 0L729 0L729 0L686 0L686 0L643 0L643 0L600 0L600 0L557 0L557 0L514 0L514 0L471 0L471 0L429 0L429 0L386 0L386 0L343 0L343 0L300 0L300 0L257 0L257 0L214 0L214 0L171 0L171 0L129 0L129 0L86 0L86 0L43 0L43 0L0 0Z" fill="#db2777"></path><path d="M0 244L43 244L43 232L86 232L86 223L129 223L129 168L171 168L171 241L214 241L214 148L257 148L257 231L300 231L300 160L343 160L343 178L386 178L386 216L429 216L429 170L471 170L471 134L514 134L514 227L557 227L557 147L600 147L600 148L643 148L643 250L686 250L686 191L729 191L729 207L771 207L771 211L814 211L814 251L857 251L857 161L900 161L900 213L900 0L900 0L857 0L857 0L814 0L814 0L771 0L771 0L729 0L729 0L686 0L686 0L643 0L643 0L600 0L600 0L557 0L557 0L514 0L514 0L471 0L471 0L429 0L429 0L386 0L386 0L343 0L343 0L300 0L300 0L257 0L257 0L214 0L214 0L171 0L171 0L129 0L129 0L86 0L86 0L43 0L43 0L0 0Z" fill="#ac0438"></path><path d="M0 96L43 96L43 53L86 53L86 62L129 62L129 119L171 119L171 117L214 117L214 148L257 148L257 74L300 74L300 145L343 145L343 148L386 148L386 141L429 141L429 143L471 143L471 69L514 69L514 155L557 155L557 127L600 127L600 100L643 100L643 75L686 75L686 98L729 98L729 144L771 144L771 129L814 129L814 128L857 128L857 139L900 139L900 140L900 0L900 0L857 0L857 0L814 0L814 0L771 0L771 0L729 0L729 0L686 0L686 0L643 0L643 0L600 0L600 0L557 0L557 0L514 0L514 0L471 0L471 0L429 0L429 0L386 0L386 0L343 0L343 0L300 0L300 0L257 0L257 0L214 0L214 0L171 0L171 0L129 0L129 0L86 0L86 0L43 0L43 0L0 0Z" fill="#770000"></path></svg>