<svg id="svg" version="1.1" xmlns="http://www.w3.org/2000/svg" xmlns:xlink="http://www.w3.org/1999/xlink" width="400" height="400" viewBox="0, 0, 400,400"><g id="svgg"><path id="path0" d="M176.258 26.213 C 34.410 45.529,-25.456 219.105,74.187 322.162 C 181.461 433.113,371.090 359.192,374.792 204.981 C 377.409 95.933,283.729 11.579,176.258 26.213 M210.156 38.318 C 348.870 48.150,412.355 214.768,315.030 313.562 C 230.297 399.574,83.889 365.380,46.223 250.781 C 12.691 148.763,85.622 43.307,193.359 38.025 C 195.938 37.899,198.223 37.732,198.438 37.655 C 198.652 37.578,203.926 37.877,210.156 38.318 M180.469 50.807 C 80.005 64.610,21.752 169.797,63.231 262.500 C 99.437 343.415,201.364 374.940,277.734 328.843 C 351.041 284.595,372.455 187.388,324.619 116.016 C 302.811 83.478,269.270 60.982,230.104 52.624 C 219.728 50.410,191.009 49.358,180.469 50.807 M288.962 119.613 C 291.723 120.576,292.969 122.350,292.969 125.320 C 292.969 127.859,262.143 165.353,258.388 167.382 C 255.289 169.056,115.763 169.534,111.038 167.887 C 108.277 166.924,107.031 165.150,107.031 162.180 C 107.031 159.641,137.857 122.147,141.612 120.118 C 144.711 118.444,284.237 117.966,288.962 119.613 M135.938 143.140 C 130.566 149.631,126.055 155.236,125.911 155.595 C 125.768 155.955,154.596 156.230,189.974 156.205 L 254.297 156.160 264.063 144.360 C 269.434 137.869,273.945 132.264,274.089 131.905 C 274.232 131.545,245.404 131.270,210.026 131.295 L 145.703 131.340 135.938 143.140 M258.388 176.368 C 262.143 178.397,292.969 215.891,292.969 218.430 C 292.969 221.400,291.723 223.174,288.962 224.137 C 284.237 225.784,144.711 225.306,141.612 223.632 C 138.000 221.680,107.031 184.116,107.031 181.685 C 107.031 178.643,107.901 177.233,110.468 176.116 C 114.666 174.288,254.982 174.528,258.388 176.368 M125.911 188.155 C 126.055 188.514,130.566 194.119,135.938 200.610 L 145.703 212.410 210.026 212.455 C 245.404 212.480,274.232 212.205,274.089 211.845 C 273.945 211.486,269.434 205.881,264.063 199.390 L 254.297 187.590 189.974 187.545 C 154.596 187.520,125.768 187.795,125.911 188.155 M288.962 232.113 C 291.723 233.076,292.969 234.850,292.969 237.820 C 292.969 240.359,262.143 277.853,258.388 279.882 C 255.289 281.556,115.763 282.034,111.038 280.387 C 108.277 279.424,107.031 277.650,107.031 274.680 C 107.031 272.141,137.857 234.647,141.612 232.618 C 144.711 230.944,284.237 230.466,288.962 232.113 M135.938 255.640 C 130.566 262.131,126.055 267.736,125.911 268.095 C 125.768 268.455,154.596 268.730,189.974 268.705 L 254.297 268.660 264.063 256.860 C 269.434 250.369,273.945 244.764,274.089 244.405 C 274.232 244.045,245.404 243.770,210.026 243.795 L 145.703 243.840 135.938 255.640 " stroke="none" fill="#000000" fill-rule="evenodd"></path></g></svg>